<?xml version="1.0" encoding="utf-8"?>
<!-- Generator: Adobe Illustrator 24.3.0, SVG Export Plug-In . SVG Version: 6.00 Build 0)  -->
<svg version="1.1" id="Layer_1" xmlns="http://www.w3.org/2000/svg" xmlns:xlink="http://www.w3.org/1999/xlink" x="0px" y="0px"
	 viewBox="0 0 1920 1080" style="enable-background:new 0 0 1920 1080;" xml:space="preserve">
<style type="text/css">
	.st0{fill:#781C68;stroke:#FFFFFF;stroke-miterlimit:10;}
</style>
<path class="st0" d="M1920.5,1080c-136.7-23.1-218.7-76.1-270-126c-59.6-58-110.7-88.4-126-150c-30.5-122.7,95.9-198.3,59-291
	c-29.6-74.3-139-95.9-180-104c-123.7-24.4-159.7,33.9-347,43c-100.1,4.9-189.7,8-258-49c-46.8-39-32.6-63.8-89-141
	c-27.7-37.9-128.6-176.1-236-167c-88.6,7.5-95.8,24.1-165.8,16.1C230.5,102.3,209,41.6,123.1,28C76,20.6,28.3,69.3-0.5,95
	c0-31.7,0-63.3,0-95c640.3,0,1280.7,0,1921,0C1920.5,360,1920.5,720,1920.5,1080z"/>
</svg>
