<?xml version="1.0" standalone="no"?><svg xmlns="http://www.w3.org/2000/svg" viewBox="0 0 1440 320"><path fill="#275b56" fill-opacity="1" d="M0,160L26.7,186.7C53.3,213,107,267,160,266.7C213.3,267,267,213,320,181.3C373.3,149,427,139,480,144C533.3,149,587,171,640,192C693.3,213,747,235,800,208C853.3,181,907,107,960,85.3C1013.3,64,1067,96,1120,96C1173.3,96,1227,64,1280,80C1333.3,96,1387,160,1413,192L1440,224L1440,0L1413.3,0C1386.7,0,1333,0,1280,0C1226.7,0,1173,0,1120,0C1066.7,0,1013,0,960,0C906.7,0,853,0,800,0C746.7,0,693,0,640,0C586.7,0,533,0,480,0C426.7,0,373,0,320,0C266.7,0,213,0,160,0C106.7,0,53,0,27,0L0,0Z"></path></svg>